<svg width="114" height="31" viewBox="0 0 114 31" fill="none" xmlns="http://www.w3.org/2000/svg">
<mask id="mask0_1_17" style="mask-type:luminance" maskUnits="userSpaceOnUse" x="0" y="0" width="114" height="31">
<path d="M113.925 0H0V31H113.925V0Z" fill="white"/>
</mask>
<g mask="url(#mask0_1_17)">
<path d="M1.52732 24.747L1.02849 24.9388C0.750487 25.0384 0.505057 25.2248 0.322345 25.4753C0.139641 25.7256 0.027604 26.029 0 26.3483V26.4612C0.000491457 26.7618 0.0750533 27.0567 0.215813 27.3148C0.356564 27.5728 0.558286 27.7844 0.799661 27.9271L7.68028 30.8704C8.90677 31.3948 10.1975 30.3065 10.1975 28.756V21.4062L1.52732 24.747Z" fill="#64748B"/>
<path d="M7.02507 0.594497L0.972379 2.92598C0.791347 3.01737 0.628523 3.14698 0.493194 3.3074C0.357872 3.46782 0.252696 3.65589 0.183692 3.8609C0.11468 4.06588 0.0831884 4.28378 0.0910136 4.50213C0.0988388 4.72048 0.145822 4.93499 0.229287 5.13342C0.38035 5.49354 0.643924 5.78254 0.972379 5.94817L8.96891 9.36791C9.34409 9.54469 9.66277 9.83989 9.88442 10.2159C10.106 10.5919 10.2206 11.0318 10.2134 11.4794V21.4031L13.3426 20.1993C15.1946 19.4862 16.7989 18.1601 17.9338 16.4041C19.0687 14.6481 19.6782 12.5491 19.6781 10.3969C19.6761 9.02939 19.4284 7.67578 18.9491 6.41327C18.4699 5.15077 17.7686 4.00416 16.8852 3.03891C16.0017 2.07366 14.9535 1.30869 13.8003 0.787689C12.6472 0.266689 11.4117 -0.000133786 10.1645 0.00246014C9.09524 0.00573684 8.03395 0.205866 7.02507 0.594497Z" fill="#64748B"/>
<path d="M105.147 24.2184V22.0871H110.378C110.74 22.0871 110.921 21.8934 110.921 21.5059V19.084H110.572C110.468 19.3036 110.307 19.5232 110.088 19.7428C109.868 19.9623 109.571 20.1432 109.197 20.2853C108.821 20.4273 108.344 20.4984 107.763 20.4984C107.013 20.4984 106.355 20.3305 105.787 19.9946C105.231 19.6459 104.798 19.168 104.488 18.5609C104.178 17.9538 104.023 17.2563 104.023 16.4684V10.7334H106.465V16.2746C106.465 16.998 106.639 17.5405 106.988 17.9021C107.349 18.2638 107.86 18.4446 108.518 18.4446C109.267 18.4446 109.848 18.1992 110.262 17.7084C110.675 17.2046 110.882 16.5071 110.882 15.6159V10.7334H113.323V22.0484C113.323 22.7071 113.13 23.2303 112.742 23.6178C112.355 24.0182 111.838 24.2184 111.192 24.2184H105.147Z" fill="#64748B"/>
<path d="M97.5801 20.3436V10.7336H99.9826V11.8186H100.331C100.473 11.4311 100.706 11.147 101.029 10.9661C101.364 10.7853 101.752 10.6948 102.191 10.6948H103.354V12.8648H102.153C101.533 12.8648 101.023 13.0328 100.622 13.3686C100.221 13.6915 100.021 14.1953 100.021 14.8798V20.3436H97.5801Z" fill="#64748B"/>
<path d="M93.5865 20.3437C92.9541 20.3437 92.4372 20.15 92.0365 19.7625C91.649 19.3621 91.4552 18.8325 91.4552 18.1738V12.7488H89.0527V10.7338H91.4552V7.75H93.8965V10.7338H96.5315V12.7488H93.8965V17.7475C93.8965 18.135 94.0778 18.3287 94.439 18.3287H96.299V20.3437H93.5865Z" fill="#64748B"/>
<path d="M79.3945 20.3436V10.7336H81.797V11.993H82.1458C82.3008 11.6572 82.5914 11.3407 83.0177 11.0436C83.4439 10.7336 84.0903 10.5786 84.9552 10.5786C85.7046 10.5786 86.3571 10.753 86.912 11.1017C87.4809 11.4375 87.9195 11.9091 88.2295 12.5161C88.5395 13.1103 88.6945 13.8078 88.6945 14.6086V20.3436H86.2533V14.8024C86.2533 14.0791 86.0727 13.5366 85.7108 13.1749C85.362 12.8132 84.8583 12.6324 84.1995 12.6324C83.4509 12.6324 82.8696 12.8842 82.4558 13.388C82.0427 13.8788 81.8358 14.5699 81.8358 15.4611V20.3436H79.3945Z" fill="#64748B"/>
<path d="M69.3652 20.3433V6.78076H78.0841V9.10576H71.9227V12.3414H77.5416V14.6664H71.9227V18.0183H78.2003V20.3433H69.3652Z" fill="#64748B"/>
<path d="M64.0474 20.6149C62.7945 20.6149 61.7676 20.3437 60.9668 19.8012C60.1659 19.2587 59.6815 18.4837 59.5137 17.4762L61.7612 16.8949C61.8515 17.347 62.0001 17.7022 62.2068 17.9605C62.4264 18.2188 62.6912 18.4062 63.0012 18.5224C63.324 18.6257 63.6728 18.6774 64.0474 18.6774C64.6157 18.6774 65.0355 18.5805 65.3068 18.3868C65.578 18.1801 65.7137 17.9282 65.7137 17.6312C65.7137 17.3341 65.5845 17.108 65.3262 16.953C65.0678 16.7851 64.6545 16.6495 64.0862 16.5462L63.5437 16.4493C62.872 16.3201 62.2584 16.1457 61.703 15.9262C61.1476 15.6937 60.702 15.3772 60.3662 14.9768C60.0303 14.5763 59.8624 14.0597 59.8624 13.4268C59.8624 12.471 60.2112 11.7412 60.9087 11.2374C61.6062 10.7207 62.5232 10.4624 63.6599 10.4624C64.732 10.4624 65.6232 10.7013 66.3337 11.1793C67.044 11.6572 67.509 12.2837 67.7287 13.0587L65.4618 13.7562C65.3584 13.2653 65.1453 12.9166 64.8224 12.7099C64.5124 12.5032 64.1249 12.3999 63.6599 12.3999C63.1949 12.3999 62.8397 12.4838 62.5943 12.6518C62.3489 12.8068 62.2262 13.0263 62.2262 13.3105C62.2262 13.6205 62.3553 13.853 62.6137 14.008C62.872 14.1501 63.2207 14.2599 63.6599 14.3374L64.2024 14.4343C64.9257 14.5635 65.578 14.7378 66.1593 14.9574C66.7534 15.1641 67.2184 15.4676 67.5543 15.868C67.903 16.2555 68.0774 16.7851 68.0774 17.4568C68.0774 18.4643 67.7093 19.2457 66.973 19.8012C66.2497 20.3437 65.2745 20.6149 64.0474 20.6149Z" fill="#64748B"/>
<path d="M54.6627 20.6149C53.4097 20.6149 52.3828 20.3437 51.582 19.8012C50.7812 19.2587 50.2968 18.4837 50.1289 17.4762L52.3764 16.8949C52.4668 17.347 52.6153 17.7022 52.822 17.9605C53.0416 18.2188 53.3064 18.4062 53.6164 18.5224C53.9393 18.6257 54.2881 18.6774 54.6627 18.6774C55.231 18.6774 55.6508 18.5805 55.922 18.3868C56.1933 18.1801 56.3289 17.9282 56.3289 17.6312C56.3289 17.3341 56.1997 17.108 55.9414 16.953C55.6831 16.7851 55.2697 16.6495 54.7014 16.5462L54.1589 16.4493C53.4872 16.3201 52.8737 16.1457 52.3183 15.9262C51.7628 15.6937 51.3172 15.3772 50.9814 14.9768C50.6456 14.5763 50.4777 14.0597 50.4777 13.4268C50.4777 12.471 50.8264 11.7412 51.5239 11.2374C52.2214 10.7207 53.1385 10.4624 54.2752 10.4624C55.3472 10.4624 56.2385 10.7013 56.9489 11.1793C57.6593 11.6572 58.1243 12.2837 58.3439 13.0587L56.077 13.7562C55.9737 13.2653 55.7606 12.9166 55.4377 12.7099C55.1277 12.5032 54.7402 12.3999 54.2752 12.3999C53.8102 12.3999 53.455 12.4838 53.2095 12.6518C52.9641 12.8068 52.8414 13.0263 52.8414 13.3105C52.8414 13.6205 52.9706 13.853 53.2289 14.008C53.4872 14.1501 53.836 14.2599 54.2752 14.3374L54.8177 14.4343C55.541 14.5635 56.1933 14.7378 56.7745 14.9574C57.3687 15.1641 57.8337 15.4676 58.1695 15.868C58.5183 16.2555 58.6927 16.7851 58.6927 17.4568C58.6927 18.4643 58.3245 19.2457 57.5883 19.8012C56.865 20.3437 55.8897 20.6149 54.6627 20.6149Z" fill="#64748B"/>
<path d="M43.3049 20.6149C42.6204 20.6149 42.0068 20.4987 41.4643 20.2662C40.9218 20.0207 40.4891 19.672 40.1662 19.2199C39.8562 18.7549 39.7012 18.193 39.7012 17.5343C39.7012 16.8755 39.8562 16.3266 40.1662 15.8874C40.4891 15.4353 40.9283 15.0995 41.4837 14.8799C42.0521 14.6474 42.6979 14.5312 43.4212 14.5312H46.0562V13.9887C46.0562 13.5366 45.9141 13.1685 45.6299 12.8843C45.3458 12.5872 44.8937 12.4387 44.2737 12.4387C43.6666 12.4387 43.2146 12.5807 42.9174 12.8649C42.6204 13.1362 42.4266 13.4913 42.3362 13.9305L40.0887 13.1749C40.2437 12.6841 40.4891 12.2385 40.8249 11.838C41.1737 11.4247 41.6322 11.0953 42.2005 10.8499C42.7818 10.5916 43.4858 10.4624 44.3124 10.4624C45.5783 10.4624 46.5793 10.7788 47.3155 11.4118C48.0518 12.0447 48.4199 12.9618 48.4199 14.163V17.7474C48.4199 18.1349 48.6008 18.3287 48.9624 18.3287H49.7374V20.3437H48.1099C47.6321 20.3437 47.238 20.2274 46.928 19.9949C46.618 19.7624 46.463 19.4524 46.463 19.0649V19.0455H46.0949C46.0433 19.2005 45.9271 19.4072 45.7462 19.6655C45.5654 19.911 45.2812 20.1305 44.8937 20.3243C44.5062 20.518 43.9766 20.6149 43.3049 20.6149ZM43.7312 18.6387C44.4158 18.6387 44.9712 18.4513 45.3974 18.0768C45.8366 17.6893 46.0562 17.1791 46.0562 16.5462V16.3524H43.5955C43.1435 16.3524 42.7883 16.4493 42.5299 16.643C42.2716 16.8368 42.1424 17.108 42.1424 17.4568C42.1424 17.8055 42.278 18.0897 42.5493 18.3093C42.8205 18.5288 43.2146 18.6387 43.7312 18.6387Z" fill="#64748B"/>
<path d="M29.4941 20.3433V6.78076H35.0741C35.9266 6.78076 36.6758 6.95514 37.3216 7.30389C37.9804 7.63969 38.4906 8.11764 38.8523 8.73764C39.2268 9.35764 39.4141 10.0939 39.4141 10.9464V11.2176C39.4141 12.0572 39.2204 12.7934 38.8329 13.4264C38.4583 14.0464 37.9416 14.5308 37.2829 14.8795C36.6371 15.2153 35.9008 15.3833 35.0741 15.3833H32.0516V20.3433H29.4941ZM32.0516 13.0583H34.8223C35.4293 13.0583 35.9202 12.8903 36.2948 12.5545C36.6693 12.2187 36.8566 11.7601 36.8566 11.1789V10.9851C36.8566 10.4039 36.6693 9.94532 36.2948 9.60951C35.9202 9.2737 35.4293 9.10576 34.8223 9.10576H32.0516V13.0583Z" fill="#64748B"/>
</g>
</svg>
