<svg width="183" height="34" viewBox="0 0 183 34" fill="none" xmlns="http://www.w3.org/2000/svg">
<g filter="url(#filter0_d_1_29)">
<mask id="mask0_1_29" style="mask-type:alpha" maskUnits="userSpaceOnUse" x="4" y="0" width="175" height="26">
<path d="M178.781 0H4V26H178.781V0Z" fill="#64748B"/>
</mask>
<g mask="url(#mask0_1_29)">
<path d="M33.5555 20.4991L28.7563 25.6378C28.6518 25.7502 28.5259 25.8404 28.3856 25.9021C28.2454 25.9643 28.0942 25.9968 27.9403 25.9988H5.18997C5.08157 25.9981 4.97574 25.9656 4.88487 25.9059C4.79391 25.8463 4.72322 25.7612 4.67973 25.6619C4.63624 25.5626 4.62326 25.4529 4.64136 25.3457C4.65955 25.2386 4.70825 25.1393 4.78159 25.0594L9.58083 19.9136C9.68534 19.8012 9.81127 19.711 9.9515 19.6493C10.0917 19.587 10.243 19.5546 10.3968 19.5526H33.1478C33.2575 19.5526 33.3653 19.5838 33.4575 19.6441C33.5497 19.7046 33.6218 19.7902 33.6653 19.8909C33.7087 19.9915 33.7217 20.1031 33.7022 20.2115C33.6828 20.3199 33.6314 20.42 33.5555 20.4991ZM28.7563 10.1353C28.6524 10.0223 28.5265 9.93214 28.3856 9.86979C28.2454 9.80744 28.0935 9.77504 27.9403 9.77437H5.18997C5.08157 9.77437 4.97507 9.80555 4.88487 9.86458C4.79391 9.9237 4.72256 10.0087 4.67907 10.1081C4.63558 10.2074 4.6226 10.3171 4.64079 10.4242C4.65889 10.5313 4.70825 10.63 4.78225 10.7099L9.5815 15.8628C9.68534 15.9757 9.81127 16.066 9.95216 16.1283C10.0924 16.1906 10.2443 16.2231 10.3975 16.2238H33.1478C33.2562 16.2238 33.3627 16.1926 33.4529 16.1335C33.5438 16.0745 33.6152 15.9894 33.6587 15.8901C33.7022 15.7908 33.7152 15.6811 33.697 15.574C33.6789 15.4668 33.6295 15.3682 33.5555 15.2883L28.7563 10.1353ZM5.18997 6.43771H27.9403C28.0935 6.43572 28.2454 6.40332 28.3856 6.34097C28.5259 6.27863 28.6524 6.18909 28.7563 6.07681L33.5555 0.93741C33.6289 0.857534 33.6776 0.758234 33.6958 0.651165C33.7139 0.544002 33.7003 0.43428 33.6574 0.334981C33.6139 0.235681 33.5432 0.150596 33.4522 0.0909026C33.362 0.0312094 33.2556 -0.00128987 33.1472 -0.00195312H10.3975C10.2443 3.66492e-05 10.0924 0.0324401 9.95216 0.0947864C9.81193 0.157133 9.68534 0.246673 9.5815 0.359047L4.78225 5.49835C4.70892 5.57823 4.66022 5.67752 4.64202 5.78469C4.62383 5.89176 4.63747 6.00148 4.6803 6.10078C4.72389 6.20008 4.79457 6.28516 4.88544 6.34486C4.97574 6.40464 5.08148 6.43705 5.18997 6.43771Z" fill="#64748B"/>
<path d="M61.1397 10.9747H48.977V6.93041H64.3062V2.88558H48.9478C47.8832 2.88558 46.8614 3.30883 46.1084 4.06182C45.3554 4.81481 44.9321 5.83594 44.9321 6.90123V11.0033C44.9321 11.5304 45.036 12.0529 45.2379 12.5398C45.4398 13.0274 45.7358 13.4694 46.1084 13.8427C46.8614 14.5957 47.8832 15.0189 48.9478 15.0189H61.1105V19.0632H45.221V23.1075H61.139C62.2036 23.1075 63.2254 22.6842 63.9784 21.9311C64.7314 21.1781 65.1546 20.157 65.1546 19.0917V14.9898C65.1546 14.4627 65.0508 13.94 64.8489 13.4532C64.6471 12.9657 64.3511 12.5236 63.9784 12.1503C63.6052 11.7777 63.1631 11.4817 62.6756 11.2798C62.1887 11.078 61.6668 10.9747 61.1397 10.9747Z" fill="#64748B"/>
<path d="M84.6795 2.88558H72.4845C71.4198 2.88558 70.398 3.30883 69.645 4.06182C68.892 4.81481 68.4687 5.83594 68.4687 6.90123V19.0924C68.4687 20.1577 68.892 21.1788 69.645 21.9318C70.398 22.6849 71.4198 23.1081 72.4845 23.1081H84.6795C85.2066 23.1081 85.7286 23.0042 86.2154 22.8024C86.7022 22.6005 87.1448 22.3044 87.5172 21.9318C87.8905 21.5592 88.1852 21.1165 88.387 20.629C88.5879 20.1421 88.6921 19.6195 88.6912 19.0924V6.90123C88.6912 6.37413 88.5879 5.85224 88.387 5.36465C88.1852 4.87782 87.8905 4.43504 87.5172 4.06182C87.1448 3.68916 86.7022 3.39316 86.2154 3.19134C85.7286 2.98943 85.2066 2.88558 84.6795 2.88558ZM84.6471 19.0639H72.5136V6.93041H84.6471V19.0639Z" fill="#64748B"/>
<path d="M127.411 2.88558H115.494C114.967 2.88558 114.444 2.98943 113.957 3.19134C113.47 3.39316 113.027 3.68916 112.654 4.06182C112.281 4.43448 111.986 4.87715 111.784 5.36465C111.582 5.85157 111.478 6.37413 111.478 6.90123V23.1081H115.522V16.4633H127.367V23.1081H131.411V6.90123C131.411 5.83859 130.99 4.81936 130.24 4.06703C129.49 3.31461 128.474 2.88946 127.411 2.88558ZM127.382 12.4191H115.537V6.93041H127.382V12.4191Z" fill="#64748B"/>
<path d="M174.766 2.88558H162.85C161.787 2.88946 160.77 3.31395 160.019 4.06703C159.27 4.81936 158.848 5.83859 158.848 6.90123V23.1081H162.892V16.4633H174.737V23.1081H178.781V6.90123C178.781 6.37413 178.678 5.85157 178.476 5.36465C178.273 4.87715 177.978 4.43504 177.605 4.06182C177.232 3.68916 176.789 3.39316 176.302 3.19134C175.815 2.98943 175.293 2.88558 174.766 2.88558ZM174.737 12.4191H162.892V6.93041H174.737V12.4191Z" fill="#64748B"/>
<path d="M151.201 19.0639H149.584L143.806 4.56888C143.605 4.06907 143.258 3.64193 142.812 3.34138C142.365 3.04149 141.838 2.88241 141.299 2.88563H137.688C136.978 2.88563 136.298 3.16742 135.795 3.66922C135.294 4.17102 135.012 4.85133 135.012 5.56149V23.1082H139.057V6.93055H140.674L146.474 21.4256C146.673 21.9242 147.017 22.3513 147.462 22.6512C147.907 22.9511 148.432 23.1108 148.969 23.1082H152.581C152.931 23.1082 153.28 23.0387 153.605 22.9044C153.929 22.77 154.225 22.5726 154.473 22.324C154.721 22.0754 154.918 21.7807 155.053 21.4561C155.186 21.1315 155.256 20.7836 155.256 20.4324V2.88563H151.211L151.201 19.0639Z" fill="#64748B"/>
<path d="M96.3372 2.88558H92.2933V19.0924C92.2933 20.1577 92.7158 21.1788 93.4691 21.9318C94.2224 22.6849 95.2438 23.1081 96.3088 23.1081H108.471V19.0639H96.3382L96.3372 2.88558Z" fill="#64748B"/>
</g>
</g>
<defs>
<filter id="filter0_d_1_29" x="0.632812" y="0" width="182.148" height="33.999" filterUnits="userSpaceOnUse" color-interpolation-filters="sRGB">
<feFlood flood-opacity="0" result="BackgroundImageFix"/>
<feColorMatrix in="SourceAlpha" type="matrix" values="0 0 0 0 0 0 0 0 0 0 0 0 0 0 0 0 0 0 127 0" result="hardAlpha"/>
<feOffset dy="4"/>
<feGaussianBlur stdDeviation="2"/>
<feComposite in2="hardAlpha" operator="out"/>
<feColorMatrix type="matrix" values="0 0 0 0 0 0 0 0 0 0 0 0 0 0 0 0 0 0 0.25 0"/>
<feBlend mode="normal" in2="BackgroundImageFix" result="effect1_dropShadow_1_29"/>
<feBlend mode="normal" in="SourceGraphic" in2="effect1_dropShadow_1_29" result="shape"/>
</filter>
</defs>
</svg>
